<svg width="504" height="432" viewBox="0 0 504 432" fill="none" xmlns="http://www.w3.org/2000/svg">
<g clip-path="url(#clip0_911_172)">
<path d="M253.946 362.485L268.298 358.139L264.11 372.932L268.298 387.682L253.946 383.378L239.553 387.682L243.781 372.932L239.553 358.139L253.946 362.485Z" fill="black" stroke="white" stroke-miterlimit="10"/>
</g>
<g clip-path="url(#clip1_911_172)">
<path d="M102.234 289.554L127.901 303.926L102.234 318.414L88.1934 344.735L74.1526 318.414L48.4862 303.926L74.1526 289.554L88.1934 263.118L102.234 289.554Z" fill="#7C3AED" stroke="white" stroke-miterlimit="10"/>
</g>
<path d="M282.11 168.678C337.913 200.313 385.8 233.828 418.111 262.435C434.27 276.741 446.512 289.803 453.905 300.771C457.601 306.256 460.069 311.195 461.217 315.486C462.364 319.774 462.183 323.373 460.646 326.236C459.11 329.099 456.245 331.177 452.103 332.467C447.959 333.759 442.578 334.248 436.092 333.96C423.121 333.385 405.842 329.709 385.448 323.294C344.668 310.466 291.539 286.718 235.736 255.083C179.932 223.449 132.046 189.933 99.7345 161.325C83.5757 147.019 71.332 133.958 63.9396 122.99C60.2431 117.505 57.7758 112.567 56.6281 108.275C55.4811 103.987 55.6627 100.388 57.1992 97.5246C58.7358 94.6619 61.6009 92.5847 65.742 91.2941C69.8859 90.0027 75.2663 89.5132 81.7523 89.8007C94.723 90.3758 112.004 94.0512 132.398 100.466C173.178 113.294 226.306 137.044 282.11 168.678Z" stroke="black"/>
<path d="M265.614 199.412C321.417 231.047 369.304 264.562 401.615 293.17C417.774 307.476 430.016 320.537 437.409 331.506C441.105 336.991 443.573 341.929 444.721 346.22C445.868 350.509 445.687 354.107 444.15 356.97C442.614 359.833 439.748 361.911 435.607 363.202C431.463 364.493 426.082 364.982 419.596 364.695C406.625 364.119 389.346 360.444 368.952 354.029C328.172 341.201 275.043 317.452 219.239 285.818C163.436 254.183 115.55 220.667 83.2384 192.06C67.0796 177.753 54.8359 164.693 47.4435 153.724C43.747 148.239 41.2797 143.301 40.132 139.01C38.985 134.721 39.1666 131.122 40.7031 128.259C42.2397 125.396 45.1048 123.319 49.2459 122.028C53.3898 120.737 58.7702 120.248 65.2562 120.535C78.2269 121.11 95.5076 124.786 115.902 131.201C156.682 144.029 209.81 167.778 265.614 199.412Z" stroke="black"/>
<path d="M249.119 230.147C304.923 261.782 352.81 295.297 385.121 323.904C401.28 338.211 413.522 351.272 420.915 362.24C424.611 367.725 427.079 372.664 428.227 376.955C429.374 381.244 429.193 384.842 427.656 387.705C426.12 390.568 423.254 392.646 419.113 393.937C414.969 395.228 409.588 395.717 403.102 395.429C390.131 394.854 372.852 391.179 352.458 384.763C311.678 371.936 258.549 348.187 202.745 316.553C146.942 284.918 99.0555 251.402 66.7443 222.795C50.5855 208.488 38.3418 195.428 30.9494 184.459C27.2529 178.974 24.7856 174.036 23.6379 169.745C22.4909 165.456 22.6724 161.857 24.209 158.994C25.7456 156.131 28.6107 154.054 32.7518 152.763C36.8957 151.472 42.2761 150.982 48.7621 151.27C61.7327 151.845 79.0135 155.52 99.4075 161.936C140.188 174.763 193.316 198.513 249.119 230.147Z" stroke="black"/>
<ellipse cx="107.579" cy="87.5762" rx="12.6392" ry="12.9898" fill="#7C3AED"/>
<path d="M351.799 364.551C351.799 369.18 348.148 372.932 343.645 372.932C339.141 372.932 335.49 369.18 335.49 364.551C335.49 359.923 339.141 356.171 343.645 356.171C348.148 356.171 351.799 359.923 351.799 364.551Z" fill="#0A2770"/>
<ellipse cx="66.8071" cy="54.054" rx="19.1626" ry="19.6942" fill="black"/>
<path d="M249.85 321.467C244.709 323.273 238.834 319.695 236.791 313.49L204.99 217.733L223.573 211.201L255.405 307.089C257.448 313.228 254.958 319.662 249.85 321.467Z" fill="black"/>
<path d="M247.071 322.649C245.571 322.649 244.038 322.288 242.57 321.533C239.6 320.023 237.237 317.2 236.088 313.72L204.287 217.963C204.16 217.602 204.351 217.175 204.734 217.044L223.317 210.511C223.508 210.445 223.7 210.445 223.86 210.544C224.019 210.642 224.147 210.774 224.211 210.971L256.043 306.859C258.182 313.359 255.501 320.22 250.041 322.156C249.115 322.485 248.093 322.649 247.071 322.649ZM205.884 218.193L237.461 313.26C238.483 316.379 240.59 318.939 243.208 320.252C245.315 321.303 247.582 321.5 249.626 320.778C254.351 319.103 256.65 313.063 254.734 307.319L223.125 212.12L205.884 218.193Z" fill="black"/>
<path d="M220.282 128.541L160.161 172.628L136.757 197.61L127.562 214.319L127.53 214.45C125.71 217.339 126.764 224.003 130.18 230.798C133.532 237.495 138.258 242.156 141.578 242.419L141.483 242.485L159.139 244.454L192.185 239.038L262.331 213.236L349.528 228.599L350.134 228.631C328.231 224.43 298.666 194.327 277.178 151.75C255.722 109.206 248.889 67.1545 258.308 46.4077H258.276L220.761 127.491L220.282 128.541Z" fill="#2E4F98"/>
<path d="M364.626 226.778C386.175 215.272 382.008 163.108 355.318 110.268C328.628 57.4269 289.522 23.9188 267.972 35.4252C246.423 46.9315 250.59 99.0951 277.28 151.936C303.97 204.776 343.076 238.285 364.626 226.778Z" fill="white"/>
<path d="M355.148 229.781C345.761 229.781 334.459 224.397 322.294 213.925C305.723 199.678 289.472 177.717 276.541 152.046C256.969 113.179 248.891 73.3265 255.979 50.5116C258.342 42.8957 262.301 37.5777 267.697 34.7217C278.424 29.0754 293.527 33.8682 310.257 48.2465C326.828 62.4935 343.079 84.4549 356.01 110.126C375.614 148.993 383.692 188.845 376.572 211.66C374.209 219.276 370.25 224.594 364.854 227.45C361.949 229.026 358.692 229.781 355.148 229.781ZM277.467 33.8682C274.178 33.8682 271.113 34.5576 268.367 36.0348C263.29 38.6938 259.587 43.7492 257.352 51.004C250.359 73.4906 258.405 112.916 277.818 151.455C304.254 203.88 343.015 237.43 364.248 226.236C369.324 223.577 373.028 218.521 375.263 211.266C382.255 188.78 374.209 149.354 354.797 110.815C331.777 65.1853 299.465 33.8682 277.467 33.8682Z" fill="black"/>
<path d="M355.148 229.781C345.761 229.781 334.459 224.397 322.294 213.925C305.723 199.678 289.472 177.717 276.541 152.046C256.969 113.178 248.891 73.3263 255.979 50.5114C258.342 42.8954 262.301 37.5774 267.697 34.7215C274.88 30.9135 284.267 31.8655 294.836 37.4461C304.957 42.797 315.908 52.284 326.572 64.8568C326.828 65.1523 326.796 65.6119 326.509 65.8745C326.221 66.1371 325.774 66.1043 325.519 65.8088C303.871 40.2693 281.969 28.8454 268.367 36.0346C263.29 38.6936 259.587 43.7489 257.352 51.0038C250.359 73.4904 258.405 112.916 277.818 151.455C300.806 197.052 333.15 228.402 355.116 228.402C358.405 228.402 361.47 227.713 364.216 226.235C369.293 223.576 372.996 218.521 375.231 211.266C382.223 188.78 374.178 149.354 354.765 110.815C348.986 99.3254 342.473 88.5253 335.48 78.7099C335.257 78.3817 335.321 77.9221 335.64 77.6923C335.959 77.4625 336.406 77.5281 336.63 77.8564C343.686 87.7374 350.199 98.6032 356.042 110.158C375.614 148.993 383.692 188.845 376.572 211.66C374.209 219.276 370.25 224.594 364.854 227.45C361.949 229.026 358.692 229.781 355.148 229.781Z" fill="black"/>
<path d="M315.732 159.513C320.724 156.847 319.764 144.773 313.587 132.545C307.41 120.316 298.356 112.564 293.364 115.229C288.371 117.895 289.331 129.969 295.508 142.198C301.685 154.426 310.739 162.179 315.732 159.513Z" fill="#E5E9F5"/>
<path d="M313.547 160.778C308.055 160.778 300.392 153.49 294.869 142.493C290.271 133.367 288.387 123.979 290.079 118.562C290.686 116.658 291.676 115.312 293.049 114.59C298.476 111.734 307.768 119.514 314.217 132.284C318.815 141.41 320.699 150.799 319.006 156.215C318.4 158.119 317.41 159.465 316.037 160.187C315.271 160.581 314.441 160.778 313.547 160.778ZM295.539 115.411C294.869 115.411 294.23 115.542 293.687 115.838C292.634 116.396 291.867 117.446 291.388 118.989C289.824 124.044 291.644 133.039 296.082 141.837C301.957 153.49 310.801 161.336 315.367 158.907C316.42 158.349 317.186 157.298 317.665 155.755C319.23 150.667 317.378 141.705 312.972 132.908C307.8 122.698 300.392 115.411 295.539 115.411Z" fill="#0A2770"/>
<path d="M350.295 217.536C342.058 217.536 332.16 212.809 321.496 203.65C307 191.176 292.76 171.939 281.458 149.485C264.312 115.476 257.256 80.5807 263.45 60.5889C265.525 53.8922 269.006 49.2307 273.763 46.703C284.682 40.9583 300.742 47.5894 317.856 64.8893C318.143 65.1847 318.143 65.6115 317.856 65.9069C317.569 66.2024 317.154 66.2024 316.866 65.9069C300.2 49.0666 284.714 42.5011 274.402 47.9833C269.995 50.314 266.771 54.68 264.791 61.0157C258.693 80.6464 265.717 115.115 282.703 148.828C302.786 188.714 331.042 216.091 350.263 216.091C353.137 216.091 355.787 215.468 358.213 214.22C362.62 211.89 365.844 207.523 367.824 201.188C373.922 181.557 366.898 147.089 349.912 113.375C344.772 103.199 339.025 93.6459 332.83 85.0124C332.607 84.6841 332.671 84.2245 332.99 83.9947C333.309 83.7649 333.756 83.8306 333.98 84.1589C340.238 92.8909 346.017 102.476 351.189 112.719C368.335 146.728 375.391 181.623 369.197 201.615C367.121 208.311 363.641 212.973 358.884 215.5C356.266 216.846 353.392 217.536 350.295 217.536Z" fill="black"/>
<path d="M159.172 245.144C159.14 245.144 159.108 245.144 159.108 245.144L141.452 243.174C141.356 243.174 141.26 243.141 141.165 243.076C137.525 242.485 132.927 237.758 129.575 231.127C125.999 224.134 124.945 217.306 126.893 214.089L126.925 213.991L136.12 197.249C136.152 197.183 136.184 197.15 136.216 197.118L159.619 172.136C159.651 172.103 159.683 172.07 159.715 172.038L219.676 128.049L257.607 46.0797C257.703 45.9156 257.831 45.7843 258.022 45.7186C258.214 45.653 258.406 45.653 258.565 45.7514C258.916 45.9156 259.076 46.3423 258.916 46.7034C249.306 67.877 256.905 109.961 277.786 151.389C298.699 192.883 327.85 223.609 350.295 227.844C350.646 227.91 350.902 228.238 350.87 228.632C350.838 228.993 350.519 229.255 350.168 229.288L349.561 229.255C349.529 229.255 349.497 229.255 349.465 229.255L262.428 213.925L192.442 239.662C192.41 239.662 192.346 239.695 192.314 239.695L159.268 245.111C159.236 245.144 159.204 245.144 159.172 245.144ZM141.963 241.795L159.172 243.699L192.058 238.283L262.173 212.514C262.301 212.481 262.397 212.448 262.524 212.481L340.876 226.268C319.708 216.715 294.963 188.517 276.605 152.079C258.374 115.903 250.232 79.1695 254.702 55.9607L220.922 128.837C220.858 128.936 220.794 129.034 220.698 129.1L160.641 173.187L137.333 198.037L128.138 214.779C128.138 214.811 128.106 214.844 128.106 214.844C126.446 217.503 127.563 224.069 130.788 230.47C133.949 236.74 138.515 241.467 141.644 241.697C141.771 241.697 141.867 241.73 141.963 241.795Z" fill="black"/>
<path d="M220.378 128.279L258.276 46.375H258.308C248.89 67.1218 255.754 109.173 277.178 151.717C298.666 194.327 328.231 224.43 350.198 228.566L349.591 228.533L262.523 213.203L260.511 212.842C250.39 211.003 236.884 197.479 227.21 178.176C217.28 158.381 215.524 138.652 219.931 129.264L220.378 128.279Z" fill="white"/>
<path d="M350.198 229.288C350.166 229.288 350.198 229.288 350.198 229.288L349.559 229.255C349.527 229.255 349.495 229.255 349.463 229.255L262.395 213.925L260.383 213.564C249.687 211.627 236.118 197.544 226.571 178.537C215.748 156.937 215.205 137.7 219.292 128.968L219.77 127.983L257.669 46.1124C257.765 45.9483 257.893 45.817 258.084 45.7513C258.276 45.6857 258.468 45.6857 258.627 45.7842C258.978 45.9483 259.138 46.375 258.978 46.7361C249.368 67.9097 256.967 109.994 277.848 151.422C298.761 192.916 327.912 223.642 350.357 227.877C350.709 227.942 350.964 228.271 350.932 228.664C350.836 228.993 350.549 229.288 350.198 229.288ZM254.636 55.9606L221.016 128.607L220.537 129.592C216.482 138.258 217.663 157.626 227.816 177.848C237.171 196.494 250.358 210.281 260.639 212.12L262.65 212.481L340.843 226.268C319.674 216.715 294.93 188.517 276.571 152.079C258.34 115.903 250.198 79.1694 254.636 55.9606Z" fill="black"/>
<path d="M158.214 245.045C158.182 245.045 158.15 245.045 158.15 245.045L141.419 243.207C141.324 243.207 141.228 243.174 141.132 243.109C137.492 242.518 132.894 237.791 129.542 231.16C125.998 224.135 124.944 217.306 126.892 214.089L126.924 213.991L136.119 197.249C136.311 196.888 136.726 196.789 137.077 196.986C137.428 197.183 137.524 197.61 137.332 197.971L128.137 214.779C128.137 214.812 128.105 214.844 128.105 214.844C126.445 217.503 127.562 224.069 130.787 230.47C133.948 236.74 138.514 241.467 141.643 241.697C141.739 241.697 141.866 241.73 141.93 241.796L158.277 243.601C158.661 243.634 158.948 243.995 158.884 244.389C158.852 244.75 158.565 245.045 158.214 245.045Z" fill="black"/>
<path d="M159.33 244.323C153.903 243.929 146.304 236.018 140.78 225.086C134.937 213.498 133.564 201.517 137.14 197.249L127.594 214.319L127.53 214.45C125.71 217.339 126.764 224.003 130.18 230.798C133.532 237.495 138.258 242.157 141.578 242.419L141.483 242.485L159.33 244.323Z" fill="white"/>
<path d="M159.331 245.045C159.299 245.045 159.299 245.045 159.267 245.045C159.14 245.045 158.98 245.013 158.852 245.013L141.419 243.207C141.324 243.207 141.228 243.174 141.132 243.109C137.492 242.518 132.894 237.791 129.542 231.159C125.998 224.134 124.944 217.306 126.892 214.089L126.924 213.991L135.321 198.956C135.64 198.102 136.055 197.347 136.566 196.724C136.79 196.428 137.205 196.395 137.492 196.592C137.779 196.822 137.875 197.216 137.684 197.544L136.502 199.613C134.619 204.832 136.47 215.074 141.324 224.66C146.592 235.132 153.776 242.78 158.916 243.47L159.299 243.502C159.682 243.535 159.97 243.896 159.938 244.29C159.97 244.75 159.682 245.045 159.331 245.045ZM141.93 241.795L154.127 243.076C149.433 239.99 144.261 233.621 140.142 225.415C136.151 217.503 134.172 209.297 134.491 203.388L128.137 214.779C128.137 214.811 128.105 214.844 128.105 214.844C126.445 217.503 127.562 224.069 130.787 230.47C133.948 236.74 138.514 241.467 141.643 241.697C141.739 241.697 141.866 241.73 141.93 241.795Z" fill="black"/>
<path d="M191.004 239.169L192.409 238.874C184.81 240.515 172.805 228.697 164.344 211.923C155.691 194.787 154.063 177.684 160.193 172.628L159.395 173.449L137.205 197.15C133.565 201.352 134.906 213.4 140.781 225.053C146.432 236.28 154.446 244.29 159.906 244.257L191.004 239.169Z" fill="black"/>
<path d="M159.875 245.013C154.064 245.013 145.987 236.97 140.144 225.415C134.205 213.597 132.704 201.254 136.664 196.691L158.439 173.449C158.822 172.924 159.269 172.465 159.748 172.071C160.035 171.841 160.45 171.874 160.706 172.136C160.961 172.432 160.961 172.859 160.706 173.121L159.46 174.467C155.022 180.573 157.225 196.199 164.984 211.595C173.349 228.205 185.035 239.596 192.187 238.217L192.283 238.185C192.666 238.119 193.017 238.349 193.113 238.743C193.177 239.137 192.953 239.498 192.57 239.596C192.538 239.596 192.506 239.596 192.474 239.629L191.165 239.892H191.133L160.035 244.98C159.971 244.98 159.907 245.013 159.875 245.013ZM156.587 177.52L137.717 197.676C134.205 201.746 135.801 213.63 141.421 224.758C146.913 235.657 154.671 243.535 159.875 243.568L187.334 239.071C179.926 236.379 170.795 226.236 163.739 212.284C157.034 198.989 154.448 185.464 156.587 177.52Z" fill="black"/>
<path d="M293.367 115.213C288.354 117.84 289.089 130.018 295.474 142.165C306.17 162.485 314.695 160.088 315.685 159.727C315.717 159.727 315.717 159.76 315.685 159.76L297.326 174.959C291.93 167.179 286.79 158.512 282.064 149.157C277.562 140.195 273.763 131.266 270.762 122.599L293.367 115.213Z" fill="black"/>
<path d="M297.326 175.681C297.294 175.681 297.262 175.681 297.23 175.681C297.038 175.648 296.879 175.55 296.751 175.386C291.227 167.409 286.087 158.677 281.457 149.518C277.019 140.72 273.188 131.758 270.123 122.895C270.059 122.698 270.059 122.501 270.155 122.337C270.25 122.173 270.378 122.041 270.57 121.976L293.175 114.59C293.526 114.491 293.909 114.655 294.037 115.016C294.165 115.378 294.037 115.771 293.718 115.936C292.632 116.494 291.834 117.61 291.355 119.251C289.79 124.405 291.706 133.531 296.144 141.902C306.585 161.73 314.631 159.464 315.493 159.136C315.812 159.005 316.195 159.169 316.355 159.464C316.515 159.76 316.451 160.187 316.195 160.416L297.773 175.517C297.645 175.615 297.485 175.681 297.326 175.681ZM271.687 123.059C274.72 131.627 278.424 140.293 282.702 148.828C287.172 157.692 292.153 166.128 297.485 173.908L313.417 160.712C309.778 160.548 302.913 157.757 294.867 142.493C290.206 133.662 288.29 124.339 289.982 118.726C290.206 118.004 290.461 117.38 290.78 116.789L271.687 123.059Z" fill="black"/>
<path d="M387.829 68.3825C402.425 60.5017 408.071 41.9994 400.439 27.0565C392.807 12.1135 374.787 6.38844 360.191 14.2692C345.594 22.15 339.949 40.6522 347.581 55.5952C355.213 70.5382 373.233 76.2632 387.829 68.3825Z" fill="#7C3AED"/>
<path d="M374.116 44.9145L370.262 41.2952M374.116 44.9145C375.911 44.2736 377.632 43.4652 379.255 42.5016M374.116 44.9145V50.9467C374.116 50.9467 378.009 50.2832 379.255 48.5338C380.642 46.5794 379.255 42.5016 379.255 42.5016M370.262 41.2952C370.946 39.6296 371.807 38.033 372.832 36.5297C374.328 34.2821 376.413 32.4315 378.886 31.1539C381.359 29.8764 384.14 29.2143 386.963 29.2308C386.963 32.5123 385.961 38.2791 379.255 42.5016M370.262 41.2952H363.839C363.839 41.2952 364.546 37.6397 366.408 36.4694C368.489 35.1665 372.832 36.4694 372.832 36.4694M364.481 46.7242C362.554 48.2443 361.912 52.7564 361.912 52.7564C361.912 52.7564 366.717 52.1532 368.335 50.3435C369.247 49.3301 369.235 47.7738 368.22 46.8327C367.72 46.3852 367.063 46.1265 366.373 46.1065C365.683 46.0865 365.009 46.3064 364.481 46.7242Z" stroke="white" stroke-width="2" stroke-linecap="round" stroke-linejoin="round"/>
<path d="M437.357 135.103C448.042 124.116 448.042 106.304 437.357 95.3172C426.671 84.3307 409.346 84.3307 398.661 95.3172C387.975 106.304 387.975 124.116 398.661 135.103C409.346 146.089 426.671 146.089 437.357 135.103Z" fill="black"/>
<path d="M418.003 144.054C402.549 144.054 389.938 131.12 389.938 115.199C389.938 99.3105 402.517 86.3438 418.003 86.3438C433.488 86.3438 446.068 99.2777 446.068 115.199C446.068 131.087 433.488 144.054 418.003 144.054ZM418.003 87.7881C403.315 87.7881 391.342 100.066 391.342 115.199C391.342 130.299 403.284 142.61 418.003 142.61C432.69 142.61 444.663 130.332 444.663 115.199C444.663 100.098 432.721 87.7881 418.003 87.7881Z" fill="black"/>
<path d="M417.017 121.594L419.586 124.007C419.839 124.244 420.14 124.433 420.47 124.562C420.801 124.69 421.155 124.756 421.513 124.756C421.871 124.756 422.225 124.69 422.556 124.562C422.887 124.433 423.187 124.244 423.44 124.007C423.693 123.769 423.894 123.487 424.031 123.177C424.168 122.866 424.238 122.533 424.238 122.197C424.238 121.861 424.168 121.528 424.031 121.218C423.894 120.907 423.693 120.625 423.44 120.387M420.871 117.975L424.082 120.991C424.593 121.471 425.287 121.74 426.009 121.74C426.732 121.74 427.425 121.471 427.936 120.991C428.447 120.511 428.734 119.86 428.734 119.181C428.734 118.502 428.447 117.851 427.936 117.371L422.952 112.69C422.229 112.013 421.25 111.632 420.228 111.632C419.207 111.632 418.228 112.013 417.505 112.69L416.375 113.752C415.863 114.232 415.17 114.502 414.448 114.502C413.725 114.502 413.032 114.232 412.521 113.752C412.01 113.272 411.722 112.621 411.722 111.942C411.722 111.264 412.01 110.613 412.521 110.133L416.13 106.743C417.302 105.645 418.831 104.946 420.473 104.756C422.116 104.565 423.779 104.895 425.2 105.693L425.804 106.031C426.351 106.341 427.001 106.448 427.628 106.332L429.863 105.91M429.863 104.704L431.148 117.975H428.579M406.74 104.704L405.455 117.975L413.805 125.816C414.316 126.296 415.009 126.566 415.732 126.566C416.455 126.566 417.148 126.296 417.659 125.816C418.17 125.337 418.457 124.686 418.457 124.007C418.457 123.328 418.17 122.677 417.659 122.197M406.74 105.91H417.017" stroke="white" stroke-width="2" stroke-linecap="round" stroke-linejoin="round"/>
<path d="M438.207 216.777C450.737 207.834 453.885 190.202 445.238 177.393C436.591 164.585 419.424 161.45 406.893 170.392C394.363 179.334 391.215 196.967 399.862 209.776C408.509 222.584 425.676 225.719 438.207 216.777Z" fill="#7C3AED"/>
<path d="M431.444 196.233C433.358 194.471 435.298 192.36 435.298 189.597C435.298 187.838 434.554 186.15 433.229 184.905C431.904 183.661 430.107 182.962 428.233 182.962C425.972 182.962 424.379 183.565 422.452 185.375C420.525 183.565 418.932 182.962 416.671 182.962C414.797 182.962 413 183.661 411.675 184.905C410.35 186.15 409.605 187.838 409.605 189.597C409.605 192.372 411.532 194.483 413.459 196.233L422.452 204.678L431.444 196.233Z" stroke="white" stroke-width="2" stroke-linecap="round" stroke-linejoin="round"/>
<defs>
<clipPath id="clip0_911_172">
<rect width="29.3555" height="30.1698" fill="white" transform="translate(239.27 357.847)"/>
</clipPath>
<clipPath id="clip1_911_172">
<rect width="58.1466" height="58.1466" fill="white" transform="matrix(0.697368 0.716713 -0.697368 0.716713 88.1934 262.31)"/>
</clipPath>
</defs>
</svg>
